<?xml version="1.0" encoding="UTF-8"?>
<svg width="493px" height="371px" viewBox="0 0 493 371" version="1.1" xmlns="http://www.w3.org/2000/svg" xmlns:xlink="http://www.w3.org/1999/xlink">
    <!-- Generator: Sketch 54.1 (76490) - https://sketchapp.com -->
    <title>Group 28</title>
    <desc>Created with Sketch.</desc>
    <g id="21_06_18" stroke="none" stroke-width="1" fill="none" fill-rule="evenodd">
        <g id="Group-28">
            <g id="credit-card-(1)" transform="translate(41.000000, 0.000000)" fill="#50617E" fill-rule="nonzero">
                <path d="M26.034,330.489 C11.655,330.489 0,318.834 0,304.455 L0,26.76 C0,12.381 11.655,0.726 26.034,0.726 L425.22,0.726 C439.599,0.726 451.254,12.381 451.254,26.76 L451.254,304.455 C451.254,318.834 439.6,330.489 425.22,330.489 L26.034,330.489 Z" id="Path"></path>
            </g>
            <g id="Group-27" transform="translate(0.000000, 40.000000)">
                <g id="credit-card-(1)">
                    <path d="M26.034,330.489 C11.655,330.489 0,318.834 0,304.455 L0,26.76 C0,12.381 11.655,0.726 26.034,0.726 L425.22,0.726 C439.599,0.726 451.254,12.381 451.254,26.76 L451.254,304.455 C451.254,318.834 439.6,330.489 425.22,330.489 L26.034,330.489 Z" id="Path" fill="#26ADE4" fill-rule="nonzero"></path>
                    <g id="Group" transform="translate(0.000000, 44.000000)" fill="#FFFFFF" fill-rule="nonzero">
                        <polygon id="Path" points="0.004 69.54 451.259 69.54 451.259 0.116 0.004 0.116"></polygon>
                        <polygon id="Path" points="269.021 234.421 407.869 234.421 407.869 156.614 269.021 156.614"></polygon>
                        <path d="M104.136,130.286 L34.712,130.286 C29.922,130.286 26.034,126.407 26.034,121.608 C26.034,116.809 29.922,112.93 34.712,112.93 L104.136,112.93 C108.926,112.93 112.814,116.809 112.814,121.608 C112.814,126.407 108.926,130.286 104.136,130.286" id="Path"></path>
                        <path d="M208.271,130.286 L138.847,130.286 C134.057,130.286 130.169,126.407 130.169,121.608 C130.169,116.809 134.057,112.93 138.847,112.93 L208.271,112.93 C213.061,112.93 216.949,116.809 216.949,121.608 C216.949,126.407 213.061,130.286 208.271,130.286" id="Path"></path>
                        <path d="M147.525,164.997 L34.712,164.997 C29.922,164.997 26.034,161.118 26.034,156.319 C26.034,151.52 29.922,147.641 34.712,147.641 L147.526,147.641 C152.316,147.641 156.204,151.52 156.204,156.319 C156.203,161.118 152.316,164.997 147.525,164.997" id="Path"></path>
                        <path d="M208.271,164.997 L182.237,164.997 C177.447,164.997 173.559,161.118 173.559,156.319 C173.559,151.52 177.447,147.641 182.237,147.641 L208.271,147.641 C213.061,147.641 216.949,151.52 216.949,156.319 C216.949,161.118 213.061,164.997 208.271,164.997" id="Path"></path>
                    </g>
                    <path d="M26,1 L236,1 L236,330.76 L26,330.76 C11.6405965,330.76 -1.79419393e-15,319.119403 -3.55271368e-15,304.76 L-3.55271368e-15,27 C-5.31123343e-15,12.6405965 11.6405965,1 26,1 Z" id="Rectangle" fill="#0E9AD3"></path>
                </g>
                <polygon id="Path" fill="#FFFFFF" fill-rule="nonzero" points="0.004 113.54 451.259 113.54 451.259 44.116 0.004 44.116"></polygon>
                <polygon id="Path" fill="#FFFFFF" fill-rule="nonzero" points="269.021 278.421 407.869 278.421 407.869 200.614 269.021 200.614"></polygon>
                <path d="M104.136,174.286 L34.712,174.286 C29.922,174.286 26.034,170.407 26.034,165.608 C26.034,160.809 29.922,156.93 34.712,156.93 L104.136,156.93 C108.926,156.93 112.814,160.809 112.814,165.608 C112.814,170.407 108.926,174.286 104.136,174.286" id="Path" fill="#FFFFFF" fill-rule="nonzero"></path>
                <path d="M208.271,174.286 L138.847,174.286 C134.057,174.286 130.169,170.407 130.169,165.608 C130.169,160.809 134.057,156.93 138.847,156.93 L208.271,156.93 C213.061,156.93 216.949,160.809 216.949,165.608 C216.949,170.407 213.061,174.286 208.271,174.286" id="Path" fill="#FFFFFF" fill-rule="nonzero"></path>
                <path d="M147.525,208.997 L34.712,208.997 C29.922,208.997 26.034,205.118 26.034,200.319 C26.034,195.52 29.922,191.641 34.712,191.641 L147.526,191.641 C152.316,191.641 156.204,195.52 156.204,200.319 C156.203,205.118 152.316,208.997 147.525,208.997" id="Path" fill="#FFFFFF" fill-rule="nonzero"></path>
                <path d="M208.271,208.997 L182.237,208.997 C177.447,208.997 173.559,205.118 173.559,200.319 C173.559,195.52 177.447,191.641 182.237,191.641 L208.271,191.641 C213.061,191.641 216.949,195.52 216.949,200.319 C216.949,205.118 213.061,208.997 208.271,208.997" id="Path" fill="#FFFFFF" fill-rule="nonzero"></path>
            </g>
        </g>
    </g>
</svg>