<svg width="35" height="35" xmlns="http://www.w3.org/2000/svg"><g fill="#485B78" fill-rule="evenodd"><circle fill-opacity=".1" cx="17.5" cy="17.5" r="17.5"/><path d="M14.336 17.483h-.075c-3.179.021-5.784 2.705-5.948 6.088a.474.474 0 0 0 .126.346.455.455 0 0 0 .333.145h11.059a.455.455 0 0 0 .329-.147.473.473 0 0 0 .124-.344c-.164-3.383-2.77-6.067-5.948-6.088Zm3.3-.021a7.345 7.345 0 0 1 3.414 4.86h5.178a.455.455 0 0 0 .333-.146.474.474 0 0 0 .126-.346c-.153-3.163-2.6-5.67-5.576-5.67a5.33 5.33 0 0 0-3.476 1.302Zm-3.337-6.09a2.765 2.765 0 0 0-2.554 1.74 2.86 2.86 0 0 0 .599 3.072 2.726 2.726 0 0 0 3.013.611 2.82 2.82 0 0 0 1.706-2.604c0-1.556-1.238-2.818-2.764-2.818Zm6.812-.434c-1.197 0-2.167.989-2.167 2.209 0 1.22.97 2.209 2.167 2.209 1.196 0 2.166-.99 2.166-2.21s-.97-2.208-2.166-2.209Z" fill-opacity=".5" fill-rule="nonzero"/></g></svg>