<?xml version="1.0" encoding="UTF-8"?>
<svg width="376px" height="512px" viewBox="0 0 376 512" version="1.1" xmlns="http://www.w3.org/2000/svg" xmlns:xlink="http://www.w3.org/1999/xlink">
    <!-- Generator: Sketch 54.1 (76490) - https://sketchapp.com -->
    <title>guest-list</title>
    <desc>Created with Sketch.</desc>
    <g id="21_06_18" stroke="none" stroke-width="1" fill="none" fill-rule="evenodd">
        <g id="guest-list" fill-rule="nonzero">
            <path d="M212.091,50 L149.872,50 C144.349,50 139.872,45.523 139.872,40 L139.872,10 C139.872,4.477 144.349,0 149.872,0 L212.091,0 C217.614,0 222.091,4.477 222.091,10 L222.091,40 C222.091,45.523 217.614,50 212.091,50 Z" id="Path" fill="#B7B8B4"></path>
            <path d="M361.463,50 L361.463,492 C361.463,503.046 352.509,512 341.463,512 L20.5,512 C9.454,512 0.5,503.046 0.5,492 L0.5,50 C0.5,38.954 9.454,30 20.5,30 L44,30 C48.418,30 52,33.582 52,38 L52,50 L312,50 L312,38 C312,33.582 315.582,30 320,30 L341.463,30 C352.508,30 361.463,38.954 361.463,50 Z" id="Path" fill="#EA9D2D"></path>
            <path d="M41.61,512 L20.553,512 C9.478,512 0.5,503.046 0.5,492 L0.5,50 C0.5,38.954 9.478,30 20.553,30 L41.609,30 C30.534,30 21.556,38.954 21.556,50 L21.556,492 C21.556,503.046 30.534,512 41.61,512 Z" id="Path" fill="#50617E"></path>
            <path d="M327.372,40 L327.372,470 C327.372,475.523 322.895,480 317.372,480 L54.591,480 C43.545,480 34.591,471.046 34.591,460 L34.591,40 C34.591,34.477 39.068,30 44.591,30 L317.372,30 C322.895,30 327.372,34.477 327.372,40 Z" id="Path" fill="#F1F3F0"></path>
            <path d="M364.476,391.1 C370.379,390.511 375.5,395.134 375.5,401.05 L375.5,460 C375.5,471.046 366.522,480 355.447,480 L54.644,480 C65.719,480 74.697,471.046 74.697,460 L74.697,429.05 C74.697,423.912 78.6,419.611 83.726,419.1 L364.476,391.1 Z" id="Path" fill="#D1D3D4"></path>
            <path d="M237.131,22.5 L124.832,22.5 C115.157,22.5 107.285,30.351 107.285,40 L107.285,60 C107.285,69.649 115.157,77.5 124.832,77.5 L237.131,77.5 C246.806,77.5 254.678,69.649 254.678,60 L254.678,40 C254.678,30.351 246.806,22.5 237.131,22.5 Z M239.638,60 C239.638,61.378 238.513,62.5 237.131,62.5 L124.832,62.5 C123.45,62.5 122.325,61.378 122.325,60 L122.325,40 C122.325,38.622 123.45,37.5 124.832,37.5 L237.131,37.5 C238.513,37.5 239.638,38.622 239.638,40 L239.638,60 Z" id="Shape" fill="#9D9F9C"></path>
            <path d="M79.21,290 C79.21,294.142 75.843,297.5 71.69,297.5 L70.687,297.5 C66.534,297.5 63.167,294.142 63.167,290 C63.167,285.858 66.534,282.5 70.687,282.5 L71.69,282.5 C75.843,282.5 79.21,285.858 79.21,290 Z M160.928,282.5 L100.768,282.5 C96.615,282.5 93.248,285.858 93.248,290 C93.248,294.142 96.615,297.5 100.768,297.5 L160.928,297.5 C165.081,297.5 168.448,294.142 168.448,290 C168.448,285.858 165.081,282.5 160.928,282.5 Z M202.037,282.5 L201.034,282.5 C196.881,282.5 193.514,285.858 193.514,290 C193.514,294.142 196.881,297.5 201.034,297.5 L202.037,297.5 C206.19,297.5 209.557,294.142 209.557,290 C209.557,285.858 206.191,282.5 202.037,282.5 Z M291.275,282.5 L231.115,282.5 C226.962,282.5 223.595,285.858 223.595,290 C223.595,294.142 226.962,297.5 231.115,297.5 L291.275,297.5 C295.428,297.5 298.795,294.142 298.795,290 C298.795,285.858 295.429,282.5 291.275,282.5 Z M71.69,312.5 L70.687,312.5 C66.534,312.5 63.167,315.858 63.167,320 C63.167,324.142 66.534,327.5 70.687,327.5 L71.69,327.5 C75.843,327.5 79.21,324.142 79.21,320 C79.21,315.858 75.843,312.5 71.69,312.5 Z M100.767,327.5 L154.911,327.5 C159.064,327.5 162.431,324.142 162.431,320 C162.431,315.858 159.064,312.5 154.911,312.5 L100.767,312.5 C96.614,312.5 93.247,315.858 93.247,320 C93.247,324.142 96.614,327.5 100.767,327.5 Z M202.037,312.5 L201.034,312.5 C196.881,312.5 193.514,315.858 193.514,320 C193.514,324.142 196.881,327.5 201.034,327.5 L202.037,327.5 C206.19,327.5 209.557,324.142 209.557,320 C209.557,315.858 206.191,312.5 202.037,312.5 Z M231.115,327.5 L265.206,327.5 C269.359,327.5 272.726,324.142 272.726,320 C272.726,315.858 269.359,312.5 265.206,312.5 L231.115,312.5 C226.962,312.5 223.595,315.858 223.595,320 C223.595,324.142 226.962,327.5 231.115,327.5 Z M71.69,342.5 L70.687,342.5 C66.534,342.5 63.167,345.858 63.167,350 C63.167,354.142 66.534,357.5 70.687,357.5 L71.69,357.5 C75.843,357.5 79.21,354.142 79.21,350 C79.21,345.858 75.843,342.5 71.69,342.5 Z M160.928,342.5 L100.768,342.5 C96.615,342.5 93.248,345.858 93.248,350 C93.248,354.142 96.615,357.5 100.768,357.5 L160.928,357.5 C165.081,357.5 168.448,354.142 168.448,350 C168.448,345.858 165.081,342.5 160.928,342.5 Z M202.037,342.5 L201.034,342.5 C196.881,342.5 193.514,345.858 193.514,350 C193.514,354.142 196.881,357.5 201.034,357.5 L202.037,357.5 C206.19,357.5 209.557,354.142 209.557,350 C209.557,345.858 206.191,342.5 202.037,342.5 Z M275.233,342.5 L231.115,342.5 C226.962,342.5 223.595,345.858 223.595,350 C223.595,354.142 226.962,357.5 231.115,357.5 L275.233,357.5 C279.386,357.5 282.753,354.142 282.753,350 C282.753,345.858 279.386,342.5 275.233,342.5 Z M71.69,372.5 L70.687,372.5 C66.534,372.5 63.167,375.858 63.167,380 C63.167,384.142 66.534,387.5 70.687,387.5 L71.69,387.5 C75.843,387.5 79.21,384.142 79.21,380 C79.21,375.858 75.843,372.5 71.69,372.5 Z M134.858,372.5 L100.767,372.5 C96.614,372.5 93.247,375.858 93.247,380 C93.247,384.142 96.614,387.5 100.767,387.5 L134.858,387.5 C139.011,387.5 142.378,384.142 142.378,380 C142.378,375.858 139.011,372.5 134.858,372.5 Z" id="Shape" fill="#A59EA7"></path>
            <path d="M270.801,240 L171.767,240 C168.22,240 165.795,236.427 167.112,233.143 L179.373,202.572 C182.418,194.979 189.792,190 197.992,190 L244.576,190 C252.776,190 260.15,194.979 263.195,202.572 L275.456,233.143 C276.773,236.427 274.348,240 270.801,240 Z M221.284,160 C235.128,160 246.351,148.807 246.351,135 C246.351,121.193 235.128,110 221.284,110 C207.44,110 196.217,121.193 196.217,135 C196.217,148.807 207.44,160 221.284,160 Z" id="Shape" fill="#744630"></path>
            <path d="M190.196,240 L91.162,240 C87.615,240 85.19,236.427 86.507,233.143 L98.768,202.572 C101.813,194.979 109.187,190 117.387,190 L163.971,190 C172.171,190 179.545,194.979 182.59,202.572 L194.851,233.143 C196.168,236.427 193.743,240 190.196,240 Z M140.679,160 C154.523,160 165.746,148.807 165.746,135 C165.746,121.193 154.523,110 140.679,110 C126.835,110 115.612,121.193 115.612,135 C115.612,148.807 126.835,160 140.679,160 Z" id="Shape" fill="#26ADE4"></path>
        </g>
    </g>
</svg>