<?xml version="1.0" encoding="UTF-8"?>
<svg width="512px" height="494px" viewBox="0 0 512 494" version="1.1" xmlns="http://www.w3.org/2000/svg" xmlns:xlink="http://www.w3.org/1999/xlink">
    <!-- Generator: Sketch 54.1 (76490) - https://sketchapp.com -->
    <title>Group 46</title>
    <desc>Created with Sketch.</desc>
    <g id="21_06_18" stroke="none" stroke-width="1" fill="none" fill-rule="evenodd">
        <g id="Group-46" transform="translate(0.000000, 0.500000)">
            <g id="Group-45" fill-rule="nonzero">
                <path d="M432,257 C432,265.285156 425.285156,272 417,272 L15,272 C6.714844,272 0,265.285156 0,257 C0,248.714844 6.714844,242 15,242 L21.691406,242 C28.269531,140.402344 112.742188,60.03125 216,60.03125 C319.257812,60.03125 403.730469,140.402344 410.308594,242 L417,242 C425.285156,242 432,248.714844 432,257 Z" id="Path" fill="#EBAE56"></path>
                <path d="M207.402344,219.96875 L407.621094,219.96875 C394.054688,144.769531 337.316406,84.582031 263.988281,65.996094 C265.246094,64.324219 266,62.253906 266,60 C266,54.476562 261.523438,50 256,50 L256,40 C256,17.945312 238.054688,0 216,0 C193.945312,0 176,17.945312 176,40 L176,50 C170.476562,50 166,54.476562 166,60 C166,62.253906 166.753906,64.328125 168.015625,66 C159.835938,67.914062 157.078125,69.519531 156.621094,69.871094 C93.039062,118.414062 127.40625,219.96875 207.402344,219.96875 Z M196,40 C196,28.972656 204.972656,20 216,20 C227.027344,20 236,28.972656 236,40 L236,50 L196,50 L196,40 Z M432,257 C432,265.285156 425.285156,272 417,272 L65,272 C56.714844,272 50,265.285156 50,257 C50,248.714844 56.714844,242 65,242 L417,242 C425.285156,242 432,248.714844 432,257 Z" id="Shape" fill="#FBC56D"></path>
            </g>
            <rect id="Rectangle" fill="#50617E" x="224" y="108.5" width="231" height="385" rx="8"></rect>
            <rect id="Rectangle" fill="#FFFFFF" x="243" y="126.5" width="193" height="318" rx="10"></rect>
            <path d="M310,268.332031 L280,268.332031 C274.476562,268.332031 270,263.855469 270,258.332031 L270,160 C270,154.476562 274.476562,150 280,150 L310,150 C315.523438,150 320,154.476562 320,160 L320,258.332031 C320,263.855469 315.523438,268.332031 310,268.332031 Z" id="Path" fill="#FDCB6B" fill-rule="nonzero"></path>
            <path d="M502,268.332031 L300,268.332031 C294.476562,268.332031 290,263.855469 290,258.332031 L290,160 C290,154.476562 294.476562,150 300,150 L502,150 C507.523438,150 512,154.476562 512,160 L512,258.332031 C512,263.855469 507.523438,268.332031 502,268.332031 Z" id="Path" fill="#FFDF8E" fill-rule="nonzero"></path>
            <path d="M500,249.03125 C500,252.640625 497.949219,255.566406 495.417969,255.566406 L372.582031,255.566406 C370.050781,255.566406 368,252.640625 368,249.03125 C368,245.425781 370.050781,242.496094 372.582031,242.496094 L495.414062,242.496094 C497.949219,242.496094 500,245.425781 500,249.03125 L500,249.03125 Z M375.535156,229.5 C379.835938,206.742188 397.097656,188.574219 419.355469,182.941406 C418.964844,182.425781 418.722656,181.792969 418.722656,181.097656 C418.722656,179.410156 420.089844,178.042969 421.777344,178.042969 L421.777344,174.988281 C421.777344,168.246094 427.261719,162.765625 434,162.765625 C440.738281,162.765625 446.222656,168.246094 446.222656,174.988281 L446.222656,178.042969 C447.910156,178.042969 449.277344,179.410156 449.277344,181.097656 C449.277344,181.792969 449.035156,182.425781 448.648438,182.941406 C470.902344,188.574219 488.164062,206.742188 492.464844,229.5 C492.8125,231.339844 491.414062,233.042969 489.542969,233.042969 L378.457031,233.042969 C376.585938,233.042969 375.1875,231.339844 375.535156,229.5 L375.535156,229.5 Z M427.890625,178.042969 L440.109375,178.042969 L440.109375,174.988281 C440.109375,171.617188 437.371094,168.878906 434,168.878906 C430.628906,168.878906 427.890625,171.617188 427.890625,174.988281 L427.890625,178.042969 Z" id="Shape" fill="#F4AA39" fill-rule="nonzero"></path>
            <path d="M380,170 L380,175 C380,177.761719 377.761719,180 375,180 L285,180 C282.238281,180 280,177.761719 280,175 L280,170 C280,167.238281 282.238281,165 285,165 L375,165 C377.761719,165 380,167.238281 380,170 Z M325,195 L285,195 C282.238281,195 280,197.238281 280,200 L280,205 C280,207.761719 282.238281,210 285,210 L325,210 C327.761719,210 330,207.761719 330,205 L330,200 C330,197.238281 327.761719,195 325,195 Z" id="Shape" fill="#EBAE56" fill-rule="nonzero"></path>
            <path d="M418.570312,315 L345,315 C342.238281,315 340,312.761719 340,310 L340,305 C340,302.238281 342.238281,300 345,300 L418.570312,300 C421.332031,300 423.570312,302.238281 423.570312,305 L423.570312,310 C423.570312,312.761719 421.332031,315 418.570312,315 Z M395,340 L395,335 C395,332.238281 392.761719,330 390,330 L345,330 C342.238281,330 340,332.238281 340,335 L340,340 C340,342.761719 342.238281,345 345,345 L390,345 C392.761719,345 395,342.761719 395,340 Z M423.570312,385 L423.570312,380 C423.570312,377.238281 421.332031,375 418.570312,375 L345,375 C342.238281,375 340,377.238281 340,380 L340,385 C340,387.761719 342.238281,390 345,390 L418.570312,390 C421.332031,390 423.570312,387.761719 423.570312,385 Z M395,415 L395,410 C395,407.238281 392.761719,405 390,405 L345,405 C342.238281,405 340,407.238281 340,410 L340,415 C340,417.761719 342.238281,420 345,420 L390,420 C392.761719,420 395,417.761719 395,415 Z" id="Shape" fill="#FFBE71" fill-rule="nonzero"></path>
            <path d="M320,325 C320,341.566406 306.570312,355 290,355 C273.429688,355 260,341.566406 260,325 C260,308.433594 273.429688,295 290,295 C306.570312,295 320,308.433594 320,325 Z M290,370 C273.429688,370 260,383.433594 260,400 C260,416.566406 273.429688,430 290,430 C306.570312,430 320,416.566406 320,400 C320,383.433594 306.570312,370 290,370 Z M290,280 C306.570312,280 320,266.566406 320,250 C320,233.433594 306.570312,220 290,220 C273.429688,220 260,233.433594 260,250 C260,266.566406 273.429688,280 290,280 Z" id="Shape" fill="#EA6565" fill-rule="nonzero"></path>
            <path d="M310,323.332031 L310,326.664062 C310,329.429688 307.761719,331.664062 305,331.664062 L296.667969,331.664062 L296.667969,340 C296.667969,342.761719 294.429688,345 291.667969,345 L288.335938,345 C285.574219,345 283.335938,342.761719 283.335938,340 L283.335938,331.664062 L275,331.664062 C272.238281,331.664062 270,329.429688 270,326.664062 L270,323.332031 C270,320.570312 272.238281,318.332031 275,318.332031 L283.332031,318.332031 L283.332031,310 C283.332031,307.238281 285.570312,305 288.332031,305 L291.664062,305 C294.425781,305 296.664062,307.238281 296.664062,310 L296.664062,318.332031 L305,318.332031 C307.761719,318.332031 310,320.570312 310,323.332031 L310,323.332031 Z M305,393.332031 L296.667969,393.332031 L296.667969,385 C296.667969,382.238281 294.429688,380 291.667969,380 L288.335938,380 C285.574219,380 283.335938,382.238281 283.335938,385 L283.335938,393.332031 L275,393.332031 C272.238281,393.332031 270,395.570312 270,398.332031 L270,401.664062 C270,404.429688 272.238281,406.664062 275,406.664062 L283.332031,406.664062 L283.332031,415 C283.332031,417.761719 285.570312,420 288.332031,420 L291.664062,420 C294.425781,420 296.664062,417.761719 296.664062,415 L296.664062,406.664062 L305,406.664062 C307.761719,406.664062 310,404.429688 310,401.664062 L310,398.332031 C310,395.570312 307.761719,393.332031 305,393.332031 L305,393.332031 Z M305,243.332031 L296.667969,243.332031 L296.667969,235 C296.667969,232.238281 294.429688,230 291.667969,230 L288.335938,230 C285.574219,230 283.335938,232.238281 283.335938,235 L283.335938,243.332031 L275,243.332031 C272.238281,243.332031 270,245.570312 270,248.332031 L270,251.664062 C270,254.429688 272.238281,256.664062 275,256.664062 L283.332031,256.664062 L283.332031,265 C283.332031,267.761719 285.570312,270 288.332031,270 L291.664062,270 C294.425781,270 296.664062,267.761719 296.664062,265 L296.664062,256.664062 L305,256.664062 C307.761719,256.664062 310,254.429688 310,251.664062 L310,248.332031 C310,245.570312 307.761719,243.332031 305,243.332031 L305,243.332031 Z" id="Shape" fill="#FFF5F5" fill-rule="nonzero"></path>
            <circle id="Oval" fill="#8290A8" cx="339.5" cy="467" r="9.5"></circle>
        </g>
    </g>
</svg>